<?xml version="1.0" standalone="no"?>
<!DOCTYPE svg PUBLIC "-//W3C//DTD SVG 20010904//EN"
 "http://www.w3.org/TR/2001/REC-SVG-20010904/DTD/svg10.dtd">
<svg version="1.0" xmlns="http://www.w3.org/2000/svg"
 width="72.000000pt" height="72.000000pt" viewBox="0 0 72.000000 72.000000"
 preserveAspectRatio="xMidYMid meet">
<metadata>
Created by potrace 1.14, written by Peter Selinger 2001-2017
</metadata>
<g transform="translate(0.000000,72.000000) scale(0.100000,-0.100000)"
fill="#000000" stroke="none">
<path d="M265 611 c-48 -27 -70 -44 -70 -57 0 -18 10 -19 165 -19 157 0 165 1
165 20 0 14 -20 29 -74 57 -41 21 -83 38 -95 37 -12 0 -52 -17 -91 -38z"/>
<path d="M46 562 c-2 -4 -4 -89 -4 -190 l1 -182 317 0 318 0 -1 188 -2 187
-52 3 c-50 3 -53 2 -53 -21 0 -24 -27 -57 -48 -57 -12 0 -22 -169 -9 -171 4
-1 13 -2 19 -3 7 0 14 -9 16 -18 4 -21 13 -20 -183 -20 -80 0 -156 1 -170 1
-30 1 -34 27 -6 36 14 4 21 17 23 43 5 65 -3 132 -16 132 -19 0 -46 34 -46 58
0 20 -5 22 -49 22 -28 0 -52 -3 -55 -8z"/>
<path d="M259 475 c-1 -5 -2 -41 -3 -80 -1 -76 4 -84 55 -77 l29 4 0 83 0 84
-40 -2 c-22 -1 -41 -6 -41 -12z"/>
<path d="M380 403 c0 -88 2 -91 55 -85 l32 4 -2 76 c-2 43 -3 80 -4 84 -1 4
-19 7 -41 5 l-40 -2 0 -82z"/>
<path d="M7 143 c-14 -13 -6 -42 16 -60 22 -17 48 -18 340 -18 297 0 316 1
337 20 11 10 20 28 18 39 -3 21 -8 21 -354 24 -193 1 -353 -1 -357 -5z"/>
</g>
</svg>
